<svg width="206" height="29" viewBox="0 0 206 29" fill="none" xmlns="http://www.w3.org/2000/svg">
<path d="M63.48 23.24C62.248 23.24 61.12 23.024 60.096 22.592C59.072 22.144 58.184 21.52 57.432 20.72C56.68 19.92 56.088 18.976 55.656 17.888C55.24 16.8 55.032 15.6 55.032 14.288C55.032 12.56 55.392 11.032 56.112 9.704C56.832 8.376 57.824 7.344 59.088 6.608C60.368 5.856 61.824 5.48 63.456 5.48C65.12 5.48 66.584 5.856 67.848 6.608C69.112 7.344 70.104 8.376 70.824 9.704C71.56 11.032 71.928 12.568 71.928 14.312C71.928 15.608 71.712 16.808 71.28 17.912C70.864 19 70.28 19.944 69.528 20.744C68.776 21.528 67.88 22.144 66.84 22.592C65.816 23.024 64.696 23.24 63.48 23.24ZM63.456 21.08C64.608 21.08 65.624 20.792 66.504 20.216C67.384 19.624 68.072 18.816 68.568 17.792C69.08 16.768 69.336 15.592 69.336 14.264C69.336 12.952 69.088 11.8 68.592 10.808C68.096 9.8 67.408 9.024 66.528 8.48C65.648 7.92 64.624 7.64 63.456 7.64C62.288 7.64 61.264 7.92 60.384 8.48C59.52 9.024 58.84 9.792 58.344 10.784C57.864 11.776 57.624 12.936 57.624 14.264C57.624 15.608 57.872 16.792 58.368 17.816C58.864 18.84 59.544 19.64 60.408 20.216C61.288 20.792 62.304 21.08 63.456 21.08ZM74.2329 23V10.76H76.6089V13.808H76.7289V23H74.2329ZM76.7289 16.616L76.4169 13.712C76.7049 12.672 77.2009 11.88 77.9049 11.336C78.6089 10.792 79.4489 10.52 80.4249 10.52C80.7929 10.52 81.0489 10.552 81.1929 10.616V12.968C81.1129 12.936 81.0009 12.92 80.8569 12.92C80.7129 12.904 80.5369 12.896 80.3289 12.896C79.1289 12.896 78.2249 13.208 77.6169 13.832C77.0249 14.456 76.7289 15.384 76.7289 16.616ZM89.4684 23.216C88.3164 23.216 87.3564 22.944 86.5884 22.4C85.8204 21.84 85.3164 21.064 85.0764 20.072L85.3164 20.024V23H82.9404V5.72H85.4364V13.568L85.1724 13.496C85.4444 12.568 85.9724 11.84 86.7564 11.312C87.5564 10.784 88.5164 10.52 89.6364 10.52C90.7404 10.52 91.6924 10.784 92.4924 11.312C93.3084 11.84 93.9324 12.576 94.3644 13.52C94.8124 14.464 95.0364 15.568 95.0364 16.832C95.0364 18.112 94.8044 19.232 94.3404 20.192C93.8764 21.152 93.2284 21.896 92.3964 22.424C91.5644 22.952 90.5884 23.216 89.4684 23.216ZM88.9404 21.152C90.0284 21.152 90.8924 20.768 91.5324 20C92.1724 19.232 92.4924 18.176 92.4924 16.832C92.4924 15.504 92.1724 14.472 91.5324 13.736C90.8924 12.984 90.0204 12.608 88.9164 12.608C87.8284 12.608 86.9564 12.992 86.3004 13.76C85.6604 14.512 85.3404 15.56 85.3404 16.904C85.3404 18.216 85.6604 19.256 86.3004 20.024C86.9564 20.776 87.8364 21.152 88.9404 21.152ZM97.1089 23V10.76H99.6049V23H97.1089ZM96.9889 8.36V5.552H99.7489V8.36H96.9889ZM107.743 23.24C106.319 23.24 105.271 22.912 104.599 22.256C103.943 21.584 103.615 20.6 103.615 19.304V7.952L106.087 7.016V19.328C106.087 19.968 106.255 20.44 106.591 20.744C106.927 21.048 107.471 21.2 108.223 21.2C108.511 21.2 108.767 21.176 108.991 21.128C109.215 21.08 109.407 21.024 109.567 20.96V22.976C109.391 23.056 109.143 23.12 108.823 23.168C108.503 23.216 108.143 23.24 107.743 23.24ZM101.167 12.752V10.76H109.567V12.752H101.167ZM118.967 23C118.887 22.696 118.831 22.36 118.799 21.992C118.783 21.624 118.775 21.176 118.775 20.648H118.655V14.816C118.655 14.032 118.455 13.448 118.055 13.064C117.671 12.664 117.055 12.464 116.207 12.464C115.391 12.464 114.735 12.624 114.239 12.944C113.759 13.264 113.479 13.72 113.399 14.312H111.023C111.135 13.16 111.655 12.24 112.583 11.552C113.511 10.864 114.751 10.52 116.303 10.52C117.903 10.52 119.103 10.896 119.903 11.648C120.703 12.384 121.103 13.472 121.103 14.912V20.648C121.103 21.016 121.127 21.392 121.175 21.776C121.223 22.16 121.295 22.568 121.391 23H118.967ZM114.743 23.24C113.495 23.24 112.503 22.936 111.767 22.328C111.031 21.704 110.663 20.864 110.663 19.808C110.663 18.72 111.047 17.864 111.815 17.24C112.599 16.6 113.719 16.168 115.175 15.944L119.207 15.296V17.048L115.559 17.624C114.743 17.752 114.127 17.968 113.711 18.272C113.311 18.576 113.111 19.016 113.111 19.592C113.111 20.152 113.295 20.576 113.663 20.864C114.047 21.136 114.599 21.272 115.319 21.272C116.279 21.272 117.071 21.04 117.695 20.576C118.335 20.112 118.655 19.528 118.655 18.824L118.967 20.6C118.679 21.448 118.167 22.104 117.431 22.568C116.695 23.016 115.799 23.24 114.743 23.24ZM124.005 23V5.72H126.501V23H124.005ZM134.805 23.24C133.573 23.24 132.485 22.968 131.541 22.424C130.613 21.88 129.885 21.128 129.357 20.168C128.829 19.208 128.565 18.104 128.565 16.856C128.565 15.592 128.821 14.488 129.333 13.544C129.861 12.584 130.597 11.84 131.541 11.312C132.485 10.784 133.565 10.52 134.781 10.52C135.965 10.52 136.989 10.776 137.853 11.288C138.733 11.784 139.405 12.48 139.869 13.376C140.349 14.272 140.589 15.336 140.589 16.568C140.589 16.76 140.581 16.944 140.565 17.12C140.565 17.28 140.549 17.448 140.517 17.624H130.245V15.752H138.765L138.141 16.496C138.141 15.184 137.845 14.184 137.253 13.496C136.661 12.808 135.837 12.464 134.781 12.464C133.645 12.464 132.741 12.856 132.069 13.64C131.413 14.408 131.085 15.48 131.085 16.856C131.085 18.248 131.413 19.336 132.069 20.12C132.741 20.904 133.669 21.296 134.853 21.296C135.573 21.296 136.197 21.152 136.725 20.864C137.253 20.56 137.645 20.12 137.901 19.544H140.253C139.853 20.696 139.173 21.6 138.213 22.256C137.269 22.912 136.133 23.24 134.805 23.24ZM146.94 23V5.72H149.892L159.06 20.504L158.484 20.624V5.72H160.932V23H157.98L148.812 8.216L149.388 8.096V23H146.94ZM169.271 23.24C168.039 23.24 166.951 22.968 166.007 22.424C165.079 21.88 164.351 21.128 163.823 20.168C163.295 19.208 163.031 18.104 163.031 16.856C163.031 15.592 163.287 14.488 163.799 13.544C164.327 12.584 165.063 11.84 166.007 11.312C166.951 10.784 168.031 10.52 169.247 10.52C170.431 10.52 171.455 10.776 172.319 11.288C173.199 11.784 173.871 12.48 174.335 13.376C174.815 14.272 175.055 15.336 175.055 16.568C175.055 16.76 175.047 16.944 175.031 17.12C175.031 17.28 175.015 17.448 174.983 17.624H164.711V15.752H173.231L172.607 16.496C172.607 15.184 172.311 14.184 171.719 13.496C171.127 12.808 170.303 12.464 169.247 12.464C168.111 12.464 167.207 12.856 166.535 13.64C165.879 14.408 165.551 15.48 165.551 16.856C165.551 18.248 165.879 19.336 166.535 20.12C167.207 20.904 168.135 21.296 169.319 21.296C170.039 21.296 170.663 21.152 171.191 20.864C171.719 20.56 172.111 20.12 172.367 19.544H174.719C174.319 20.696 173.639 21.6 172.679 22.256C171.735 22.912 170.599 23.24 169.271 23.24ZM182.125 23.24C180.701 23.24 179.653 22.912 178.981 22.256C178.325 21.584 177.997 20.6 177.997 19.304V7.952L180.469 7.016V19.328C180.469 19.968 180.637 20.44 180.973 20.744C181.309 21.048 181.853 21.2 182.605 21.2C182.893 21.2 183.149 21.176 183.373 21.128C183.597 21.08 183.789 21.024 183.949 20.96V22.976C183.773 23.056 183.525 23.12 183.205 23.168C182.885 23.216 182.525 23.24 182.125 23.24ZM175.549 12.752V10.76H183.949V12.752H175.549Z" fill="#413936"/>
<path d="M41.0119 3.18798C39.4354 2.42689 37.6654 2 35.795 2C33.9246 2 32.1546 2.42689 30.5781 3.18798H41.0119Z" fill="#413936"/>
<path d="M29.307 3.90068C29.4337 3.81915 29.5621 3.73993 29.692 3.66309H41.8994C42.5935 4.07348 43.2421 4.55175 43.8362 5.08866H27.7552C27.8443 5.00814 27.9346 4.92893 28.0262 4.85107H16.0722C16.1301 4.80179 16.1885 4.75305 16.2474 4.70486H4.47266C4.67959 4.53965 4.89217 4.38114 5.11007 4.22967H16.8682C17.0269 4.11619 17.1886 4.00649 17.353 3.90068H29.307Z" fill="#413936"/>
<path d="M45.5349 6.98942C45.1716 6.48327 44.7694 6.00664 44.3326 5.56384H27.2589C27.1818 5.642 27.1058 5.72121 27.0309 5.80144H15.0768C14.9762 5.90926 14.8775 6.01894 14.7809 6.13043H2.97313C2.83611 6.2853 2.70309 6.44375 2.57422 6.60562H14.3899C14.3521 6.65406 14.3147 6.70279 14.2777 6.75182H26.2317C26.1724 6.83027 26.1141 6.90948 26.0567 6.98942H45.5349Z" fill="#413936"/>
<path d="M25.5839 7.70233C25.6329 7.62249 25.6828 7.5433 25.7337 7.46472H45.8597C46.1539 7.91961 46.4178 8.39574 46.6484 8.89029H24.945C24.9821 8.81062 25.0201 8.73144 25.059 8.65267H13.105C13.1292 8.60378 13.1536 8.55506 13.1784 8.50646H1.33789C1.42175 8.34595 1.50918 8.18746 1.6001 8.03129H13.4352C13.4984 7.92051 13.5633 7.81085 13.6299 7.70233H25.5839Z" fill="#413936"/>
<path d="M47.3414 10.791C47.2095 10.3027 47.047 9.82676 46.8561 9.36548H24.7347C24.7022 9.44425 24.6704 9.52343 24.6395 9.60303H12.6854C12.6431 9.71191 12.6024 9.82163 12.5633 9.93206H0.708313C0.651241 10.0889 0.597405 10.2474 0.546875 10.4072H12.4062C12.3912 10.4558 12.3766 10.5045 12.3623 10.5534H24.3164C24.2933 10.6323 24.2709 10.7115 24.2495 10.791H47.3414Z" fill="#413936"/>
<path d="M24.0819 11.5039C24.0981 11.4243 24.1151 11.3451 24.133 11.2662H47.4605C47.5657 11.7317 47.6434 12.2075 47.6918 12.6918H23.9018C23.9097 12.6124 23.9184 12.5332 23.9279 12.4542H11.9739C11.9798 12.4054 11.986 12.3566 11.9924 12.308H0.117188C0.139663 12.1485 0.165322 11.9902 0.1941 11.8328H12.0655C12.0848 11.7226 12.1055 11.613 12.1279 11.5039H24.0819Z" fill="#413936"/>
<path d="M47.7498 13.8798C47.7498 14.1191 47.7427 14.3568 47.7287 14.5926H23.863C23.8582 14.5136 23.8543 14.4344 23.8512 14.355H11.8972C11.8952 14.3064 11.8936 14.2576 11.8922 14.2088H0.00234316C0.000783474 14.1298 0 14.0505 0 13.9712C0 13.8918 0.000783474 13.8126 0.00234316 13.7336H11.8886C11.89 13.6236 11.8928 13.5139 11.8972 13.4046H23.8512C23.8543 13.3252 23.8582 13.246 23.863 13.167H47.7287C47.7427 13.4028 47.7498 13.6405 47.7498 13.8798Z" fill="#413936"/>
<path d="M47.6918 15.0677C47.6434 15.552 47.5657 16.0279 47.4605 16.4933H24.133C24.1151 16.4144 24.0981 16.3352 24.0819 16.2557H12.1279C12.1179 16.207 12.1083 16.1583 12.0989 16.1095H0.1941C0.165322 15.9521 0.139663 15.7938 0.117188 15.6343H12.0182C12.0019 15.5251 11.9872 15.4154 11.9739 15.3053H23.9279C23.9184 15.2264 23.9097 15.1472 23.9018 15.0677H47.6918Z" fill="#413936"/>
<path d="M24.6395 18.1565C24.6704 18.2361 24.7022 18.3153 24.7347 18.3941H46.8561C47.047 17.9327 47.2095 17.4569 47.3414 16.9685H24.2495C24.2709 17.048 24.2933 17.1272 24.3164 17.2061H12.3623C12.3947 17.3164 12.4285 17.4261 12.464 17.5351H0.546875C0.597405 17.6949 0.651241 17.8534 0.708313 18.0103H12.6297C12.648 18.0591 12.6666 18.1079 12.6854 18.1565H24.6395Z" fill="#413936"/>
<path d="M46.6484 18.8693C46.4178 19.3639 46.1539 19.84 45.8597 20.2948H25.7337C25.6828 20.2163 25.6329 20.1371 25.5839 20.0573H13.6299C13.6002 20.0087 13.5707 19.96 13.5416 19.9111H1.6001C1.50918 19.7548 1.42175 19.5964 1.33789 19.4358H13.2739C13.2159 19.3272 13.1596 19.2175 13.105 19.1069H25.059C25.0201 19.0282 24.9821 18.949 24.945 18.8693H46.6484Z" fill="#413936"/>
<path d="M27.0309 21.9581C27.1058 22.0384 27.1818 22.1175 27.2589 22.1957H44.3326C44.7694 21.7529 45.1716 21.2763 45.5349 20.7701H26.0567C26.1141 20.85 26.1724 20.9293 26.2317 21.0077H14.2777C14.3617 21.1189 14.4477 21.2286 14.5355 21.3367H2.57422C2.70309 21.4985 2.83611 21.657 2.97313 21.8119H14.9426C14.9869 21.861 15.0317 21.9097 15.0768 21.9581H27.0309Z" fill="#413936"/>
<path d="M43.8362 22.6709C43.2421 23.2078 42.5935 23.6861 41.8994 24.0965H29.692C29.5621 24.0197 29.4337 23.9404 29.307 23.8589H17.353C17.2785 23.811 17.2045 23.7622 17.1312 23.7127H5.11007C4.89217 23.5612 4.67959 23.4027 4.47266 23.2375H16.4763C16.3392 23.1307 16.2044 23.021 16.0722 22.9085H28.0262C27.9346 22.8306 27.8443 22.7515 27.7552 22.6709H43.8362Z" fill="#413936"/>
<path d="M30.5781 24.5715C32.1546 25.3326 33.9246 25.7595 35.795 25.7595C37.6654 25.7595 39.4354 25.3326 41.0119 24.5715H30.5781Z" fill="#413936"/>
<path d="M16.0431 2.80422C14.7677 2.343 13.391 2.09143 11.9552 2.09143C10.5193 2.09143 9.14261 2.343 7.86719 2.80422H16.0431Z" fill="#413936"/>
<path d="M7.86719 25.1382C9.14261 25.5994 10.5193 25.851 11.9552 25.851C13.391 25.851 14.7677 25.5994 16.0431 25.1382H7.86719Z" fill="#413936"/>
<path d="M23.8413 2C25.5071 2 27.0933 2.33862 28.5341 2.95038H19.1484C20.5892 2.33862 22.1754 2 23.8413 2Z" fill="#413936"/>
<path d="M23.8413 25.7596C22.1754 25.7596 20.5892 25.421 19.1484 24.8092H28.5341C27.0933 25.421 25.5071 25.7596 23.8413 25.7596Z" fill="#413936"/>
<path d="M190.204 15V7.596H187.336V6.36H194.632V7.596H191.764V15H190.204ZM195.473 15V6.36H197.897L200.537 14.688H199.685L202.325 6.36H204.761V15H203.225V6.876H203.477L200.909 15H199.241L196.697 6.948H196.937V15H195.473Z" fill="#413936"/>
</svg>
