<svg width="193" height="29" viewBox="0 0 193 29" fill="none" xmlns="http://www.w3.org/2000/svg">
<path d="M21.2158 26.4146C24.8654 26.3379 27.8 23.2579 27.8 19.4716C27.8 17.6301 27.0915 15.8641 25.8303 14.562L14.6316 3V10.1866C14.6316 11.3885 15.094 12.5412 15.9173 13.3911L18.5406 16.0996L18.5478 16.1068L22.9465 20.6482C23.0893 20.7957 23.0893 21.0348 22.9465 21.1822C22.8037 21.3297 22.572 21.3297 22.4292 21.1822L20.913 19.6168H6.88702L5.37082 21.1822C5.22797 21.3297 4.99636 21.3297 4.85352 21.1822C4.71066 21.0348 4.71066 20.7957 4.85351 20.6482L9.25224 16.1068L9.25938 16.0996L11.8827 13.3911C12.706 12.5412 13.1684 11.3885 13.1684 10.1866V3L1.96969 14.562C0.708514 15.8641 0 17.6301 0 19.4716C0 23.2579 2.93461 26.3379 6.58423 26.4146H21.2158Z" fill="#413936"/>
<path d="M43.384 23.24C42.152 23.24 41.016 23.024 39.976 22.592C38.952 22.144 38.056 21.52 37.288 20.72C36.52 19.92 35.928 18.976 35.512 17.888C35.096 16.8 34.888 15.608 34.888 14.312C34.888 13.016 35.096 11.832 35.512 10.76C35.928 9.688 36.512 8.76 37.264 7.976C38.032 7.176 38.928 6.56 39.952 6.128C40.992 5.696 42.136 5.48 43.384 5.48C44.76 5.48 46 5.752 47.104 6.296C48.208 6.84 49.112 7.608 49.816 8.6C50.536 9.576 50.976 10.728 51.136 12.056H48.064C47.872 10.76 47.352 9.768 46.504 9.08C45.656 8.376 44.624 8.024 43.408 8.024C42.336 8.024 41.4 8.28 40.6 8.792C39.8 9.304 39.176 10.032 38.728 10.976C38.28 11.904 38.056 13.008 38.056 14.288C38.056 15.6 38.28 16.736 38.728 17.696C39.176 18.64 39.808 19.376 40.624 19.904C41.44 20.432 42.376 20.696 43.432 20.696C44.616 20.696 45.632 20.352 46.48 19.664C47.328 18.96 47.864 17.968 48.088 16.688H51.184C50.992 18 50.536 19.152 49.816 20.144C49.112 21.136 48.208 21.904 47.104 22.448C46 22.976 44.76 23.24 43.384 23.24ZM53.0577 23V10.76H56.0097V13.712H56.0817V23H53.0577ZM56.0817 16.616L55.7697 13.712C56.0577 12.672 56.5457 11.88 57.2337 11.336C57.9217 10.792 58.7457 10.52 59.7057 10.52C60.0417 10.52 60.2817 10.552 60.4257 10.616V13.472C60.3457 13.44 60.2337 13.424 60.0897 13.424C59.9457 13.408 59.7697 13.4 59.5617 13.4C58.3937 13.4 57.5217 13.656 56.9457 14.168C56.3697 14.68 56.0817 15.496 56.0817 16.616ZM61.7418 23V10.76H64.7658V23H61.7418ZM61.5978 8.744V5.408H64.8858V8.744H61.5978ZM67.4961 23V10.76H70.4481V13.64H70.5201V23H67.4961ZM75.7281 23V15.104C75.7281 14.384 75.5441 13.856 75.1761 13.52C74.8241 13.168 74.3201 12.992 73.6641 12.992C73.0881 12.992 72.5601 13.128 72.0801 13.4C71.6001 13.672 71.2161 14.056 70.9281 14.552C70.6561 15.048 70.5201 15.624 70.5201 16.28L70.2081 13.472C70.6241 12.576 71.2241 11.864 72.0081 11.336C72.7921 10.792 73.7041 10.52 74.7441 10.52C75.9921 10.52 76.9761 10.88 77.6961 11.6C78.4161 12.304 78.7761 13.216 78.7761 14.336V23H75.7281ZM83.9601 23V15.104C83.9601 14.384 83.7841 13.856 83.4321 13.52C83.0801 13.168 82.5761 12.992 81.9201 12.992C81.3281 12.992 80.7921 13.128 80.3121 13.4C79.8321 13.672 79.4561 14.056 79.1841 14.552C78.9121 15.048 78.7761 15.624 78.7761 16.28L78.2481 13.472C78.6481 12.576 79.2561 11.864 80.0721 11.336C80.8881 10.792 81.8321 10.52 82.9041 10.52C84.1841 10.52 85.1841 10.888 85.9041 11.624C86.6401 12.344 87.0081 13.304 87.0081 14.504V23H83.9601ZM94.243 23.24C92.547 23.24 91.195 22.888 90.187 22.184C89.179 21.464 88.627 20.472 88.531 19.208H91.291C91.371 19.832 91.667 20.304 92.179 20.624C92.691 20.944 93.379 21.104 94.243 21.104C95.027 21.104 95.611 20.984 95.995 20.744C96.395 20.488 96.595 20.128 96.595 19.664C96.595 19.328 96.483 19.056 96.259 18.848C96.035 18.624 95.611 18.44 94.987 18.296L93.019 17.84C91.675 17.552 90.675 17.104 90.019 16.496C89.379 15.872 89.059 15.096 89.059 14.168C89.059 13.032 89.491 12.144 90.355 11.504C91.235 10.848 92.443 10.52 93.979 10.52C95.499 10.52 96.715 10.848 97.627 11.504C98.555 12.144 99.067 13.032 99.163 14.168H96.403C96.323 13.672 96.067 13.296 95.635 13.04C95.219 12.784 94.643 12.656 93.907 12.656C93.219 12.656 92.699 12.768 92.347 12.992C91.995 13.2 91.819 13.512 91.819 13.928C91.819 14.248 91.955 14.52 92.227 14.744C92.499 14.952 92.955 15.136 93.595 15.296L95.707 15.776C96.907 16.048 97.811 16.52 98.419 17.192C99.043 17.864 99.355 18.656 99.355 19.568C99.355 20.736 98.907 21.64 98.011 22.28C97.115 22.92 95.859 23.24 94.243 23.24ZM106.909 23.24C105.613 23.24 104.469 22.968 103.477 22.424C102.501 21.88 101.741 21.128 101.197 20.168C100.653 19.192 100.381 18.08 100.381 16.832C100.381 15.584 100.653 14.488 101.197 13.544C101.741 12.6 102.501 11.864 103.477 11.336C104.469 10.792 105.613 10.52 106.909 10.52C108.221 10.52 109.365 10.792 110.341 11.336C111.317 11.864 112.077 12.6 112.621 13.544C113.165 14.488 113.437 15.584 113.437 16.832C113.437 18.08 113.157 19.192 112.597 20.168C112.053 21.128 111.293 21.88 110.317 22.424C109.341 22.968 108.205 23.24 106.909 23.24ZM106.909 20.816C107.549 20.816 108.125 20.656 108.637 20.336C109.149 20 109.549 19.536 109.837 18.944C110.125 18.336 110.269 17.624 110.269 16.808C110.269 15.608 109.949 14.664 109.309 13.976C108.685 13.288 107.885 12.944 106.909 12.944C105.933 12.944 105.125 13.288 104.485 13.976C103.845 14.664 103.525 15.608 103.525 16.808C103.525 17.624 103.669 18.336 103.957 18.944C104.261 19.536 104.661 20 105.157 20.336C105.669 20.656 106.253 20.816 106.909 20.816ZM115.181 23V10.76H118.133V13.64H118.205V23H115.181ZM123.773 23V15.272C123.773 14.52 123.581 13.952 123.197 13.568C122.813 13.184 122.253 12.992 121.517 12.992C120.877 12.992 120.301 13.136 119.789 13.424C119.293 13.712 118.901 14.112 118.613 14.624C118.341 15.136 118.205 15.728 118.205 16.4L117.893 13.472C118.309 12.576 118.917 11.864 119.717 11.336C120.517 10.792 121.477 10.52 122.597 10.52C123.925 10.52 124.957 10.896 125.693 11.648C126.445 12.4 126.821 13.4 126.821 14.648V23H123.773ZM135.885 23V20.696H140.709C141.589 20.696 142.269 20.456 142.749 19.976C143.229 19.48 143.469 18.808 143.469 17.96C143.469 17.08 143.213 16.384 142.701 15.872C142.189 15.36 141.477 15.104 140.565 15.104H135.885V12.8H140.349C141.213 12.8 141.877 12.592 142.341 12.176C142.805 11.76 143.037 11.16 143.037 10.376C143.037 9.608 142.813 9.024 142.365 8.624C141.933 8.224 141.293 8.024 140.445 8.024H135.885V5.72H141.021C142.573 5.72 143.813 6.112 144.741 6.896C145.685 7.664 146.157 8.712 146.157 10.04C146.157 10.872 145.957 11.6 145.557 12.224C145.173 12.832 144.653 13.304 143.997 13.64C143.341 13.976 142.597 14.144 141.765 14.144L141.885 13.64C142.765 13.64 143.565 13.84 144.285 14.24C145.005 14.624 145.573 15.168 145.989 15.872C146.421 16.576 146.637 17.392 146.637 18.32C146.637 19.264 146.413 20.088 145.965 20.792C145.533 21.496 144.917 22.04 144.117 22.424C143.333 22.808 142.405 23 141.333 23H135.885ZM133.437 23V5.72H136.557V23H133.437ZM155.99 23C155.91 22.68 155.846 22.328 155.798 21.944C155.766 21.56 155.75 21.096 155.75 20.552H155.654V14.744C155.654 14.104 155.47 13.624 155.102 13.304C154.75 12.968 154.206 12.8 153.47 12.8C152.75 12.8 152.174 12.936 151.742 13.208C151.326 13.464 151.07 13.84 150.974 14.336H148.07C148.198 13.2 148.742 12.28 149.702 11.576C150.662 10.872 151.95 10.52 153.566 10.52C155.246 10.52 156.518 10.904 157.382 11.672C158.246 12.424 158.678 13.536 158.678 15.008V20.552C158.678 20.936 158.702 21.328 158.75 21.728C158.814 22.128 158.902 22.552 159.014 23H155.99ZM151.742 23.24C150.51 23.24 149.526 22.936 148.79 22.328C148.07 21.704 147.71 20.872 147.71 19.832C147.71 18.712 148.118 17.824 148.934 17.168C149.75 16.512 150.902 16.072 152.39 15.848L156.206 15.272V17.192L152.894 17.696C152.174 17.808 151.63 18.008 151.262 18.296C150.91 18.584 150.734 18.984 150.734 19.496C150.734 19.96 150.902 20.32 151.238 20.576C151.574 20.816 152.038 20.936 152.63 20.936C153.494 20.936 154.214 20.72 154.79 20.288C155.366 19.856 155.654 19.328 155.654 18.704L155.99 20.552C155.67 21.432 155.142 22.104 154.406 22.568C153.686 23.016 152.798 23.24 151.742 23.24ZM161.303 27.92L164.471 20.816L165.023 19.904L168.479 10.76H171.695L164.375 27.92H161.303ZM164.015 22.88L159.047 10.76H162.335L166.487 21.752L164.015 22.88Z" fill="#413936"/>
<path d="M177.108 15V7.776H174.288V6.36H181.776V7.776H178.956V15H177.108ZM182.423 15V6.36H185.303L187.703 14.688H186.659L189.059 6.36H191.951V15H190.127V6.876H190.439L188.099 15H186.191L183.875 6.948H184.175V15H182.423Z" fill="#413936"/>
</svg>
