<svg width="175" height="30" viewBox="0 0 175 30" fill="none" xmlns="http://www.w3.org/2000/svg">
<path d="M1.248 23V21.68C1.696 21.664 2.04 21.592 2.28 21.464C2.52 21.32 2.688 21.08 2.784 20.744C2.88 20.392 2.928 19.912 2.928 19.304V9.728C2.928 9.328 2.936 8.944 2.952 8.576C2.984 8.208 3.008 7.92 3.024 7.712C2.752 7.728 2.44 7.744 2.088 7.76C1.736 7.76 1.456 7.768 1.248 7.784V6.2H7.632V7.52C7.2 7.536 6.856 7.616 6.6 7.76C6.36 7.888 6.192 8.12 6.096 8.456C6 8.792 5.952 9.272 5.952 9.896V19.448C5.952 19.88 5.944 20.28 5.928 20.648C5.912 21 5.888 21.28 5.856 21.488L9.504 21.464C10.464 21.464 11.208 21.144 11.736 20.504C12.264 19.848 12.528 18.848 12.528 17.504H13.872L13.728 23H1.248ZM19.7454 23.384C18.6094 23.384 17.5774 23.136 16.6494 22.64C15.7214 22.128 14.9854 21.416 14.4414 20.504C13.9134 19.576 13.6494 18.496 13.6494 17.264C13.6494 15.968 13.9214 14.816 14.4654 13.808C15.0094 12.8 15.7374 12.016 16.6494 11.456C17.5774 10.896 18.5934 10.616 19.6974 10.616C20.8334 10.616 21.8574 10.872 22.7694 11.384C23.6814 11.896 24.4014 12.608 24.9294 13.52C25.4734 14.432 25.7454 15.512 25.7454 16.76C25.7454 18.072 25.4814 19.232 24.9534 20.24C24.4414 21.232 23.7294 22.008 22.8174 22.568C21.9214 23.112 20.8974 23.384 19.7454 23.384ZM19.8654 21.92C20.5854 21.92 21.1374 21.696 21.5214 21.248C21.9054 20.8 22.1694 20.232 22.3134 19.544C22.4734 18.84 22.5534 18.12 22.5534 17.384C22.5534 16.76 22.4974 16.128 22.3854 15.488C22.2894 14.848 22.1294 14.272 21.9054 13.76C21.6814 13.232 21.3854 12.816 21.0174 12.512C20.6494 12.192 20.2014 12.032 19.6734 12.032C18.9694 12.048 18.4094 12.28 17.9934 12.728C17.5774 13.176 17.2734 13.744 17.0814 14.432C16.9054 15.12 16.8174 15.848 16.8174 16.616C16.8174 17.48 16.9214 18.328 17.1294 19.16C17.3374 19.976 17.6654 20.648 18.1134 21.176C18.5614 21.688 19.1454 21.936 19.8654 21.92ZM32.0398 23.384C30.9038 23.384 29.8718 23.136 28.9438 22.64C28.0158 22.128 27.2798 21.416 26.7358 20.504C26.2078 19.576 25.9438 18.496 25.9438 17.264C25.9438 15.968 26.2158 14.816 26.7598 13.808C27.3038 12.8 28.0318 12.016 28.9438 11.456C29.8718 10.896 30.8878 10.616 31.9918 10.616C33.1278 10.616 34.1518 10.872 35.0638 11.384C35.9758 11.896 36.6958 12.608 37.2238 13.52C37.7678 14.432 38.0398 15.512 38.0398 16.76C38.0398 18.072 37.7758 19.232 37.2478 20.24C36.7358 21.232 36.0238 22.008 35.1118 22.568C34.2158 23.112 33.1918 23.384 32.0398 23.384ZM32.1598 21.92C32.8798 21.92 33.4318 21.696 33.8158 21.248C34.1998 20.8 34.4638 20.232 34.6078 19.544C34.7678 18.84 34.8478 18.12 34.8478 17.384C34.8478 16.76 34.7918 16.128 34.6798 15.488C34.5838 14.848 34.4238 14.272 34.1998 13.76C33.9758 13.232 33.6798 12.816 33.3118 12.512C32.9438 12.192 32.4958 12.032 31.9678 12.032C31.2638 12.048 30.7038 12.28 30.2878 12.728C29.8718 13.176 29.5678 13.744 29.3758 14.432C29.1998 15.12 29.1118 15.848 29.1118 16.616C29.1118 17.48 29.2158 18.328 29.4238 19.16C29.6318 19.976 29.9598 20.648 30.4078 21.176C30.8558 21.688 31.4398 21.936 32.1598 21.92ZM38.4302 23V21.728C38.8942 21.728 39.2222 21.632 39.4142 21.44C39.6062 21.232 39.7262 20.944 39.7742 20.576C39.8222 20.208 39.8462 19.792 39.8462 19.328V14.816C39.8462 14.528 39.8542 14.224 39.8702 13.904C39.8862 13.584 39.9102 13.256 39.9422 12.92C39.6702 12.936 39.3742 12.952 39.0542 12.968C38.7342 12.984 38.4702 13 38.2622 13.016V11.456C38.9822 11.456 39.5742 11.424 40.0382 11.36C40.5022 11.28 40.8622 11.184 41.1182 11.072C41.3742 10.96 41.5582 10.856 41.6702 10.76H42.6782C42.7102 10.92 42.7262 11.12 42.7262 11.36C42.7422 11.584 42.7582 11.792 42.7742 11.984C43.3022 11.568 43.8782 11.24 44.5022 11C45.1262 10.744 45.7342 10.616 46.3262 10.616C47.0782 10.616 47.7022 10.752 48.1982 11.024C48.7102 11.296 49.1102 11.688 49.3982 12.2C49.9582 11.736 50.5902 11.36 51.2942 11.072C51.9982 10.768 52.6782 10.616 53.3342 10.616C54.6622 10.616 55.6542 11.008 56.3102 11.792C56.9822 12.56 57.3102 13.872 57.2942 15.728V19.568C57.2942 19.824 57.2862 20.136 57.2702 20.504C57.2542 20.856 57.2302 21.2 57.1982 21.536C57.4542 21.504 57.7262 21.488 58.0142 21.488C58.3022 21.472 58.5422 21.464 58.7342 21.464V23H53.0462V21.728C53.4622 21.728 53.7582 21.632 53.9342 21.44C54.1102 21.232 54.2142 20.944 54.2462 20.576C54.2942 20.208 54.3182 19.792 54.3182 19.328V15.752C54.3182 14.6 54.1342 13.776 53.7662 13.28C53.3982 12.784 52.8782 12.536 52.2062 12.536C51.7582 12.52 51.3262 12.608 50.9102 12.8C50.5102 12.976 50.1582 13.192 49.8542 13.448C49.9342 13.752 49.9902 14.08 50.0222 14.432C50.0542 14.784 50.0702 15.16 50.0702 15.56C50.0702 16.232 50.0702 16.904 50.0702 17.576C50.0702 18.232 50.0622 18.896 50.0462 19.568C50.0462 19.824 50.0382 20.136 50.0222 20.504C50.0222 20.856 49.9982 21.2 49.9502 21.536C50.2062 21.504 50.4782 21.488 50.7662 21.488C51.0542 21.472 51.3022 21.464 51.5102 21.464V23H45.7502V21.728C46.1822 21.728 46.4862 21.632 46.6622 21.44C46.8542 21.232 46.9742 20.944 47.0222 20.576C47.0702 20.208 47.0942 19.792 47.0942 19.328V15.704C47.0942 14.552 46.9182 13.736 46.5662 13.256C46.2302 12.76 45.7262 12.504 45.0542 12.488C44.6222 12.488 44.2062 12.584 43.8062 12.776C43.4222 12.968 43.0862 13.2 42.7982 13.472C42.7982 13.68 42.7982 13.888 42.7982 14.096C42.7982 14.288 42.7982 14.488 42.7982 14.696V19.568C42.7982 19.824 42.7902 20.136 42.7742 20.504C42.7742 20.856 42.7502 21.2 42.7022 21.536C42.9582 21.504 43.2142 21.488 43.4702 21.488C43.7422 21.472 43.9742 21.464 44.1662 21.464V23H38.4302ZM69.0501 23.384C68.3621 23.384 67.6741 23.296 66.9861 23.12C66.3141 22.944 65.7061 22.68 65.1621 22.328C64.6181 21.96 64.1781 21.488 63.8421 20.912C63.5221 20.336 63.3621 19.648 63.3621 18.848C63.3621 17.776 63.7141 16.832 64.4181 16.016C65.1221 15.2 66.0261 14.576 67.1301 14.144C66.6021 13.552 66.1941 13.008 65.9061 12.512C65.6341 12.016 65.4501 11.544 65.3541 11.096C65.2581 10.632 65.2101 10.168 65.2101 9.704C65.2261 8.52 65.6501 7.576 66.4821 6.872C67.3141 6.168 68.4021 5.816 69.7461 5.816C70.5781 5.816 71.2981 5.984 71.9061 6.32C72.5301 6.656 73.0101 7.096 73.3461 7.64C73.6821 8.184 73.8501 8.784 73.8501 9.44C73.8501 10.08 73.6981 10.688 73.3941 11.264C73.0901 11.824 72.6661 12.352 72.1221 12.848C71.5781 13.328 70.9541 13.768 70.2501 14.168C70.4261 14.36 70.7301 14.68 71.1621 15.128C71.5941 15.576 72.0901 16.072 72.6501 16.616C73.2101 17.16 73.7621 17.688 74.3061 18.2C74.3701 17.976 74.4101 17.752 74.4261 17.528C74.4581 17.304 74.4741 17.088 74.4741 16.88C74.4741 16.464 74.4261 16.112 74.3301 15.824C74.2341 15.536 74.0741 15.312 73.8501 15.152C73.6421 14.976 73.3621 14.88 73.0101 14.864V13.592H77.1141V15.104L75.5541 15.032C75.6981 15.224 75.8021 15.464 75.8661 15.752C75.9461 16.024 75.9861 16.328 75.9861 16.664C75.9861 17.08 75.9461 17.512 75.8661 17.96C75.8021 18.408 75.6901 18.848 75.5301 19.28C75.6261 19.36 75.7221 19.456 75.8181 19.568C75.9301 19.664 76.0421 19.76 76.1541 19.856C76.8101 20.416 77.3941 20.864 77.9061 21.2C78.4341 21.52 78.8421 21.68 79.1301 21.68V23H76.6821C76.5541 23 76.2581 22.872 75.7941 22.616C75.3301 22.36 74.7701 21.96 74.1141 21.416C73.5381 22.008 72.8261 22.488 71.9781 22.856C71.1301 23.208 70.1541 23.384 69.0501 23.384ZM69.6741 21.848C70.4101 21.864 71.0581 21.744 71.6181 21.488C72.1781 21.232 72.6501 20.896 73.0341 20.48C72.8581 20.32 72.6821 20.168 72.5061 20.024C72.3461 19.864 72.1781 19.704 72.0021 19.544C71.0261 18.632 70.2101 17.848 69.5541 17.192C68.8981 16.52 68.3141 15.888 67.8021 15.296C67.4181 15.552 67.1221 15.872 66.9141 16.256C66.7061 16.624 66.5541 16.992 66.4581 17.36C66.3781 17.728 66.3381 18.048 66.3381 18.32C66.3381 19.088 66.4821 19.736 66.7701 20.264C67.0581 20.792 67.4501 21.184 67.9461 21.44C68.4421 21.696 69.0181 21.832 69.6741 21.848ZM69.3381 13.112C70.0421 12.616 70.5701 12.016 70.9221 11.312C71.2741 10.592 71.4501 9.952 71.4501 9.392C71.4501 8.752 71.2901 8.224 70.9701 7.808C70.6501 7.392 70.2021 7.184 69.6261 7.184C69.0981 7.184 68.6581 7.392 68.3061 7.808C67.9541 8.208 67.7781 8.792 67.7781 9.56C67.7781 10.12 67.9301 10.72 68.2341 11.36C68.5381 12 68.9061 12.584 69.3381 13.112ZM83.6524 23V21.68C84.1004 21.664 84.4444 21.592 84.6844 21.464C84.9244 21.32 85.0924 21.08 85.1884 20.744C85.2844 20.392 85.3324 19.912 85.3324 19.304V9.728C85.3324 9.328 85.3404 8.944 85.3564 8.576C85.3884 8.208 85.4124 7.92 85.4284 7.712C85.1564 7.728 84.8444 7.744 84.4924 7.76C84.1404 7.76 83.8604 7.768 83.6524 7.784V6.2H90.0364V7.52C89.6044 7.536 89.2604 7.616 89.0044 7.76C88.7644 7.888 88.5964 8.12 88.5004 8.456C88.4044 8.792 88.3564 9.272 88.3564 9.896V19.448C88.3564 19.88 88.3484 20.28 88.3324 20.648C88.3164 21 88.2924 21.28 88.2604 21.488L91.9084 21.464C92.8684 21.464 93.6124 21.144 94.1404 20.504C94.6684 19.848 94.9324 18.848 94.9324 17.504H96.2764L96.1324 23H83.6524ZM101.982 23.384C100.83 23.384 99.8058 23.128 98.9098 22.616C98.0138 22.088 97.3178 21.352 96.8218 20.408C96.3258 19.448 96.0778 18.32 96.0778 17.024C96.0778 15.904 96.3258 14.856 96.8218 13.88C97.3178 12.904 98.0138 12.12 98.9098 11.528C99.8218 10.92 100.878 10.616 102.078 10.616C102.75 10.616 103.398 10.712 104.022 10.904C104.646 11.096 105.206 11.416 105.702 11.864C106.198 12.312 106.59 12.904 106.878 13.64C107.182 14.376 107.326 15.272 107.31 16.328L99.2458 16.472C99.2458 17.464 99.3578 18.344 99.5818 19.112C99.8218 19.864 100.206 20.464 100.734 20.912C101.262 21.344 101.958 21.56 102.822 21.56C103.206 21.56 103.614 21.496 104.046 21.368C104.494 21.224 104.934 21.016 105.366 20.744C105.798 20.456 106.182 20.104 106.518 19.688L107.43 20.528C106.902 21.296 106.318 21.888 105.678 22.304C105.038 22.72 104.398 23 103.758 23.144C103.118 23.304 102.526 23.384 101.982 23.384ZM99.3658 15.032H104.358C104.342 14.392 104.246 13.856 104.07 13.424C103.91 12.976 103.67 12.64 103.35 12.416C103.03 12.176 102.638 12.056 102.174 12.056C101.39 12.056 100.758 12.32 100.278 12.848C99.8138 13.36 99.5098 14.088 99.3658 15.032ZM112.496 23.384C111.536 23.384 110.68 23.136 109.928 22.64C109.176 22.144 108.584 21.44 108.152 20.528C107.736 19.616 107.528 18.544 107.528 17.312C107.528 16.016 107.784 14.864 108.296 13.856C108.808 12.848 109.512 12.056 110.408 11.48C111.32 10.904 112.368 10.616 113.552 10.616C114.016 10.616 114.448 10.672 114.848 10.784C115.264 10.88 115.624 10.992 115.928 11.12V8.984C115.928 8.744 115.928 8.448 115.928 8.096C115.944 7.744 115.968 7.392 116 7.04C115.744 7.056 115.448 7.072 115.112 7.088C114.792 7.104 114.52 7.12 114.296 7.136V5.576C115.032 5.576 115.632 5.544 116.096 5.48C116.56 5.4 116.92 5.304 117.176 5.192C117.448 5.08 117.64 4.976 117.752 4.88H118.856V19.568C118.856 19.808 118.848 20.112 118.832 20.48C118.816 20.832 118.792 21.184 118.76 21.536C119.032 21.504 119.312 21.488 119.6 21.488C119.904 21.472 120.16 21.456 120.368 21.44V23H116.192C116.16 22.808 116.128 22.616 116.096 22.424C116.08 22.216 116.056 22.024 116.024 21.848C115.528 22.376 114.984 22.76 114.392 23C113.8 23.256 113.168 23.384 112.496 23.384ZM113.624 21.536C114.072 21.536 114.504 21.416 114.92 21.176C115.336 20.92 115.672 20.608 115.928 20.24C115.912 20.016 115.904 19.792 115.904 19.568C115.904 19.328 115.904 19.088 115.904 18.848L115.928 12.704C115.688 12.512 115.384 12.368 115.016 12.272C114.648 12.16 114.272 12.104 113.888 12.104C113.136 12.12 112.52 12.36 112.04 12.824C111.576 13.272 111.232 13.864 111.008 14.6C110.8 15.336 110.704 16.136 110.72 17C110.72 17.784 110.824 18.52 111.032 19.208C111.24 19.896 111.552 20.456 111.968 20.888C112.4 21.32 112.952 21.536 113.624 21.536ZM125.953 29.504C124.545 29.504 123.425 29.352 122.593 29.048C121.777 28.744 121.185 28.344 120.817 27.848C120.465 27.368 120.289 26.864 120.289 26.336C120.289 25.936 120.377 25.56 120.553 25.208C120.729 24.872 120.985 24.552 121.321 24.248C121.657 23.944 122.065 23.704 122.545 23.528C121.937 23.352 121.497 23.088 121.225 22.736C120.953 22.368 120.817 21.952 120.817 21.488C120.817 21.024 121.001 20.536 121.369 20.024C121.753 19.512 122.353 19.152 123.169 18.944C122.481 18.64 121.913 18.192 121.465 17.6C121.033 17.008 120.809 16.304 120.793 15.488C120.777 14.528 121.017 13.68 121.513 12.944C122.025 12.208 122.689 11.64 123.505 11.24C124.321 10.824 125.169 10.616 126.049 10.616C126.497 10.616 126.993 10.68 127.537 10.808C128.081 10.936 128.561 11.136 128.977 11.408C129.137 10.928 129.361 10.488 129.649 10.088C129.937 9.672 130.273 9.336 130.657 9.08C131.057 8.824 131.497 8.696 131.977 8.696C132.473 8.696 132.849 8.824 133.105 9.08C133.361 9.336 133.489 9.68 133.489 10.112C133.489 10.288 133.449 10.48 133.369 10.688C133.289 10.896 133.153 11.072 132.961 11.216C132.769 11.36 132.505 11.432 132.169 11.432C131.913 11.432 131.673 11.344 131.449 11.168C131.241 10.992 131.113 10.776 131.065 10.52C130.793 10.584 130.545 10.784 130.321 11.12C130.113 11.456 129.985 11.776 129.937 12.08C130.369 12.464 130.705 12.92 130.945 13.448C131.185 13.96 131.305 14.512 131.305 15.104C131.305 16.016 131.049 16.832 130.537 17.552C130.041 18.256 129.385 18.808 128.569 19.208C127.769 19.608 126.905 19.808 125.977 19.808C125.737 19.808 125.497 19.8 125.257 19.784C125.017 19.752 124.761 19.736 124.489 19.736C124.057 19.736 123.697 19.824 123.409 20C123.137 20.176 123.017 20.408 123.049 20.696C123.097 21.032 123.385 21.256 123.913 21.368C124.441 21.464 125.257 21.544 126.361 21.608C127.593 21.672 128.665 21.824 129.577 22.064C130.489 22.304 131.193 22.68 131.689 23.192C132.185 23.72 132.433 24.44 132.433 25.352C132.433 26.024 132.241 26.616 131.857 27.128C131.473 27.64 130.961 28.072 130.321 28.424C129.697 28.776 129.001 29.04 128.233 29.216C127.481 29.408 126.721 29.504 125.953 29.504ZM126.409 28.088C127.625 28.088 128.553 27.864 129.193 27.416C129.833 26.968 130.153 26.48 130.153 25.952C130.153 25.536 130.001 25.2 129.697 24.944C129.393 24.704 128.961 24.52 128.401 24.392C127.841 24.264 127.145 24.184 126.313 24.152C125.945 24.136 125.537 24.112 125.089 24.08C124.641 24.064 124.233 24.024 123.865 23.96C123.561 24.184 123.321 24.464 123.145 24.8C122.985 25.136 122.905 25.472 122.905 25.808C122.873 26.496 123.177 27.048 123.817 27.464C124.457 27.88 125.321 28.088 126.409 28.088ZM126.073 18.464C126.553 18.464 126.953 18.328 127.273 18.056C127.609 17.768 127.857 17.408 128.017 16.976C128.193 16.528 128.281 16.056 128.281 15.56C128.281 14.952 128.201 14.376 128.041 13.832C127.881 13.272 127.633 12.824 127.297 12.488C126.961 12.136 126.537 11.96 126.025 11.96C125.305 11.96 124.745 12.264 124.345 12.872C123.961 13.464 123.769 14.168 123.769 14.984C123.769 15.608 123.857 16.192 124.033 16.736C124.225 17.264 124.489 17.688 124.825 18.008C125.177 18.312 125.593 18.464 126.073 18.464ZM138.068 23.384C136.916 23.384 135.892 23.128 134.996 22.616C134.1 22.088 133.404 21.352 132.908 20.408C132.412 19.448 132.164 18.32 132.164 17.024C132.164 15.904 132.412 14.856 132.908 13.88C133.404 12.904 134.1 12.12 134.996 11.528C135.908 10.92 136.964 10.616 138.164 10.616C138.836 10.616 139.484 10.712 140.108 10.904C140.732 11.096 141.292 11.416 141.788 11.864C142.284 12.312 142.676 12.904 142.964 13.64C143.268 14.376 143.412 15.272 143.396 16.328L135.332 16.472C135.332 17.464 135.444 18.344 135.668 19.112C135.908 19.864 136.292 20.464 136.82 20.912C137.348 21.344 138.044 21.56 138.908 21.56C139.292 21.56 139.7 21.496 140.132 21.368C140.58 21.224 141.02 21.016 141.452 20.744C141.884 20.456 142.268 20.104 142.604 19.688L143.516 20.528C142.988 21.296 142.404 21.888 141.764 22.304C141.124 22.72 140.484 23 139.844 23.144C139.204 23.304 138.612 23.384 138.068 23.384ZM135.452 15.032H140.444C140.428 14.392 140.332 13.856 140.156 13.424C139.996 12.976 139.756 12.64 139.436 12.416C139.116 12.176 138.724 12.056 138.26 12.056C137.476 12.056 136.844 12.32 136.364 12.848C135.9 13.36 135.596 14.088 135.452 15.032ZM143.83 21.728C144.294 21.728 144.622 21.632 144.814 21.44C145.006 21.232 145.126 20.944 145.174 20.576C145.222 20.208 145.246 19.792 145.246 19.328V14.816C145.246 14.528 145.254 14.224 145.27 13.904C145.286 13.584 145.31 13.256 145.342 12.92C145.07 12.936 144.774 12.952 144.454 12.968C144.134 12.968 143.87 12.976 143.662 12.992V11.456H144.55C145.19 11.456 145.726 11.384 146.158 11.24C146.59 11.08 146.894 10.92 147.07 10.76H148.078C148.11 10.952 148.134 11.256 148.15 11.672C148.166 12.088 148.174 12.504 148.174 12.92C148.542 12.44 148.926 12.032 149.326 11.696C149.726 11.344 150.134 11.08 150.55 10.904C150.982 10.712 151.422 10.616 151.87 10.616C152.382 10.616 152.83 10.76 153.214 11.048C153.614 11.336 153.814 11.8 153.814 12.44C153.814 12.648 153.758 12.872 153.646 13.112C153.55 13.352 153.39 13.552 153.166 13.712C152.958 13.872 152.67 13.952 152.302 13.952C151.966 13.952 151.646 13.848 151.342 13.64C151.054 13.416 150.902 13.064 150.886 12.584C150.55 12.568 150.198 12.688 149.83 12.944C149.478 13.2 149.158 13.512 148.87 13.88C148.582 14.248 148.358 14.624 148.198 15.008L148.222 19.568C148.222 19.824 148.214 20.136 148.198 20.504C148.182 20.856 148.158 21.2 148.126 21.536C148.382 21.504 148.654 21.488 148.942 21.488C149.23 21.472 149.47 21.464 149.662 21.464V23H143.83V21.728Z" fill="#413936"/>
<path d="M159.108 15V7.776H156.288V6.36H163.776V7.776H160.956V15H159.108ZM164.423 15V6.36H167.303L169.703 14.688H168.659L171.059 6.36H173.951V15H172.127V6.876H172.439L170.099 15H168.191L165.875 6.948H166.175V15H164.423Z" fill="#413936"/>
</svg>
